# xmcd
#
# Track frame offsets:
#	150
#	28106
#	54892
#	81960
#	98436
#	138629
#
# Disc length: 2176 seconds
#
# Revision: 5
# Processed by: cddbd v1.5.2PL0 Copyright (c) Steve Scherf et al.
# Submitted via: audiograbber 1.83.01
#
DISCID=43087e06
DTITLE=Kraftwerk - Der Katalog [CD 4) - Die Mensch-Maschine [remastered 2009]
DYEAR=1978
DGENRE=Electronic
TTITLE0=Die Roboter
TTITLE1=Spacelab
TTITLE2=Metropolis
TTITLE3=Das Model
TTITLE4=Neonlicht
TTITLE5=Die Mensch-Maschine
EXTD=
EXTT0=
EXTT1=
EXTT2=
EXTT3=
EXTT4=
EXTT5=
PLAYORDER=
